# xmcd
#
# Track frame offsets:
#	150
#	16721
#	30895
#	43155
#	56895
#	72292
#	90913
#	108990
#	123047
#	143609
#	157553
#	167374
#	184958
#	201831
#	216940
#	235542
#	252112
#	268919
#
# Disc length: 3703 seconds
#
# Revision: 1
# Processed by: cddbd v1.5.1PL2 Copyright (c) Steve Scherf et al.
# Submitted via: audiograbber 1.83.01
#
DISCID=e00e7512
DTITLE=Diverse - Traeme kann man nicht verbieten II
DYEAR=1900
DGENRE=
TTITLE0=Heute abend in der blauen Stunde
TTITLE1=Oft genügt ein Gläschen Sekt
TTITLE2=Dolannes Melodie
TTITLE3=Schoen wars heute Abend
TTITLE4=Ich tanze mit dir in den Himmel hinein
TTITLE5=King of Dreams
TTITLE6=Verde
TTITLE7=Das Lied ist aus
TTITLE8=Life Like a dream
TTITLE9=Auch du wirst mich einmal betrügen
TTITLE10=Auld Lang Syne
TTITLE11=Ich fühl mich am wohlsten bei dir
TTITLE12=Valse printemps
TTITLE13=Servus Du
TTITLE14=Einsamer Hirte Bevor das letzte Glas zerbricht
TTITLE15=Im Prater blühn wieder die Bäume
TTITLE16=Chanson pour Elvira
TTITLE17=Wien wird bei Nacht erst schön
EXTD=Schallplatte
EXTT0=
EXTT1=
EXTT2=
EXTT3=
EXTT4=
EXTT5=
EXTT6=
EXTT7=
EXTT8=
EXTT9=
EXTT10=
EXTT11=
EXTT12=
EXTT13=
EXTT14=
EXTT15=
EXTT16=
EXTT17=
PLAYORDER=
